<svg xmlns="http://www.w3.org/2000/svg" viewBox="0 0 48 48" fill="none">
  <!-- Shield outline -->
  <path d="M24 4L6 12v12c0 11.1 7.7 21.4 18 24 10.3-2.6 18-12.9 18-24V12L24 4z" fill="#009639" opacity="0.15"/>
  <path d="M24 4L6 12v12c0 11.1 7.7 21.4 18 24 10.3-2.6 18-12.9 18-24V12L24 4z" stroke="#009639" stroke-width="2" fill="none"/>
  <!-- Fingerprint arcs -->
  <path d="M24 16c-4.4 0-8 3.6-8 8" stroke="#009639" stroke-width="2" stroke-linecap="round" fill="none"/>
  <path d="M24 16c4.4 0 8 3.6 8 8" stroke="#FCD116" stroke-width="2" stroke-linecap="round" fill="none"/>
  <path d="M24 20c-2.2 0-4 1.8-4 4v4" stroke="#009639" stroke-width="2" stroke-linecap="round" fill="none"/>
  <path d="M24 20c2.2 0 4 1.8 4 4v4" stroke="#FCD116" stroke-width="2" stroke-linecap="round" fill="none"/>
  <line x1="24" y1="24" x2="24" y2="32" stroke="#009639" stroke-width="2" stroke-linecap="round"/>
</svg>
